<svg xmlns="http://www.w3.org/2000/svg" width="100" height="38" viewBox="0 0 100 38"><switch><g><g fill="#FFF"><path d="M31.8 28.2h-1.2v8.9h4.5V36h-3.3zM38.9 32.4l-2.3-4.2h-1.3l3 5.3v3.6h1.2v-3.6l2.9-5.3h-1.3zM24.3 28.1L20.9 37h1.3l.9-2.3h3.5l.9 2.3h1.3l-3.5-8.9h-1zm1.8 5.6h-2.7l.8-2.3c.3-.8.4-1.2.5-1.5.1.3.2.7.5 1.5l.9 2.3zM17.7 33.5V35c-.3-.4-.7-1-1.2-1.7l-4-5.3h-1.2v8.9h1.2v-5.6-1.5c.3.4.7 1 1.2 1.6l4.1 5.5h1V28h-1.2v5.5zM5 28.1L1.6 37h1.3l.9-2.3h3.5l.7 2.4h1.3l-3.5-8.9H5zm1.8 5.6H4.1l.8-2.3c.3-.8.4-1.2.5-1.5.1.3.2.7.5 1.5l.9 2.3zM43.5 29.2h2.6v7.9h1.2v-7.9h2.4l.4-1h-6.6zM60.1 36.2c-2 0-3.2-1.4-3.2-3.5 0-1.9 1.2-3.6 3.3-3.6.9 0 1.6.2 2.2.6v-1.1c-.5-.3-1.3-.5-2.2-.5-2.7 0-4.5 2.1-4.5 4.6 0 2.6 1.6 4.5 4.3 4.5.8 0 1.7-.2 2.6-.6l-.3-1c-.7.3-1.3.6-2.2.6zM66 30.3c0-.9.7-1.2 1.5-1.2.7 0 1.4.2 2 .5v-1.1c-.4-.2-1.2-.4-2-.4-1.7 0-2.7 1.1-2.7 2.3 0 2.7 3.9 2.4 3.9 4.4 0 1-.8 1.3-1.7 1.3-.8 0-1.5-.3-1.9-.6l-.5.9c.6.4 1.4.7 2.5.7 1.7 0 3-.9 3-2.4-.2-2.7-4.1-2.5-4.1-4.4zM51.9 28.2h1.2v8.9h-1.2zM26.3 20.9c.2-.1.2-.6.1-.7l-1-.1c-1.4-.1-1.4-.9-1.5-2.4-.2-4.3-.3-9.8-.3-13 0-2.1.2-2.6 2.1-2.8l.6-.1c.2-.1.2-.6 0-.7-.9.1-1.9.1-2.7.1-.6 0-1.2 0-2.2-.1-.1 1.4-.9 3-2.3 5.7l-2.8 5.7c-.7 1.5-1.5 3.1-2.3 4.5-.7-1.3-1.4-2.7-2.1-4.1l-3.4-7C7.6 4 6.8 2.2 6.9 1c-.9.1-1.7.1-2.4.1-.8 0-1.5 0-2.4-.1-.2.1-.3.6-.1.7l.5.1c1.8.3 2.1.7 2 2.6-.1 1.6-.2 4.2-.4 6.7-.2 3-.3 4.6-.5 6.6-.2 2.1-.6 2.3-1.9 2.5l-.7.1c-.2.2-.1.6.1.7 1-.1 2.1-.1 3-.1 1.1 0 2.3 0 3.3.1.2-.1.2-.6 0-.7l-1.1-.1c-1.2-.1-1.3-.6-1.3-2.8 0-2.5.1-5.2.2-7 .1-1.7.2-3.5.3-5.3h.1C6.3 6.5 6.9 8 7.5 9.4l2.7 5.8c.7 1.5 2.1 4.4 2.6 6 .1.1.2.1.3.1.1 0 .2 0 .3-.1.5-1.4 1.9-4.2 3.2-6.8L19.4 9c.6-1.2 1.7-3.6 1.9-3.9h.1l.1 12.5c0 1.9 0 2.4-1.5 2.5l-.9.1c-.2.2-.2.6.1.7 1.2-.1 2.6-.1 3.6-.1 1.1 0 2.3.1 3.5.1zM41.5 14.3c0-3.7-2.5-6.9-7.3-6.9-4.3 0-7.4 3.1-7.4 7 0 3.8 2.8 6.8 7.4 6.8 4.2.1 7.3-2.9 7.3-6.9zm-12.1.1c-.4-4.2 1.9-5.9 4-6 3.3-.3 5.1 2.8 5.4 6 .3 4.1-1.7 5.8-4 6-3.4.2-5.1-2.9-5.4-6zM91.5 3.9c0-1.6-1.1-2.9-2.3-2.9-1.2 0-1.4.8-1.4 1.2 0 .6.4.8.8.8.6 0 1.5.5 1.5 1.7s-1.2 2.1-2.3 2.6c-.1.2 0 .5.2.6 1.9-.4 3.5-1.9 3.5-4zM96.6 13.7l-1.9-1c-1.2-.6-2-1.3-2-2.4 0-1 .7-2 2.4-2 1.8 0 2.5 1.5 2.8 2.6.1.2.7.2.8-.1 0-1.3-.2-2.4-.4-2.9-1-.2-1.7-.4-2.8-.4-3 0-4.7 1.5-4.7 3.7 0 1.7 1.2 2.8 2.7 3.6l1.3.7c1.7.9 2.1 1.9 2.1 2.8 0 1.4-1 2.2-2.5 2.2-2 0-3.3-2.1-3.6-3.2-.2-.3-.7-.2-.8.1 0 1.6.4 2.7.6 3.1.4.3 1.6.9 3.4.9 3 0 4.9-1.5 4.9-3.8.1-2.1-1.2-3.4-2.3-3.9zM69.3 8.4c-1.4-.5-2.9-.7-4.5-.7-2.4 0-4.1.1-5.8.2-.3.1-.3.7 0 .7l.9.1c.7.1.7.6.7 2.5v6.3c0 2.1-.1 2.2-1.4 2.4l-.6.1c-.2.2-.2.7.1.7 1.2-.1 2.1-.1 3.1-.1.5 0 1 0 1.6.1.6.1 1.3.1 2 .1 1.5 0 3.2-.2 4.5-.9 2.4-1.2 3.6-3.4 3.6-5.8-.1-2.6-1.5-4.8-4.2-5.7zm-3.9 11.7c-2.3 0-2.6-1-2.6-2.9v-7.1c0-.7 0-1 .2-1.2.2-.2.8-.3 1.8-.3 3.4 0 5.9 1.9 5.9 5.6 0 3.7-1.7 5.9-5.3 5.9zM86.2 7.8c-.8.1-1.5.1-2.1.1-.7 0-1.4 0-2.3-.1-.3.1-.3.6-.1.7l.6.1c.7.1.7.4.2 1.2L81.4 12c-.5 1-1 1.7-1.4 2.5-.4-.8-.9-1.6-1.3-2.5l-1.1-2.1c-.5-.9-.4-1.1.3-1.3l.4-.1c.3-.1.2-.6 0-.7-1 .1-1.6.1-2.5.1-1.1 0-1.8 0-2.8-.1-.2.1-.3.6-.1.7l.8.1c.8.2 1.1.4 1.7 1.6l2.2 4c.8 1.4.8 1.6.8 2.5V18c0 1.8-.1 2-1.4 2.1l-.7.1c-.2.2-.2.7.1.7 1.3-.1 2.3-.1 3.2-.1.9 0 1.9 0 3.2.1.2-.1.3-.6.1-.7l-.9-.1c-1.3-.1-1.4-.3-1.4-2.1v-1.6c0-.9.1-1.2 1.1-2.9l1.9-3c.9-1.5 1.1-1.7 2-1.9l.7-.1c.2-.1.2-.6-.1-.7zM50.3 7.4c-4.3 0-7.4 3.1-7.4 7 0 3.8 2.8 6.8 7.4 6.8 4.2 0 7.3-2.9 7.3-7-.1-3.6-2.5-6.8-7.3-6.8zm.6 13c-3.5.3-5.1-2.9-5.4-6-.4-4.2 1.9-5.9 4-6 3.3-.3 5.1 2.8 5.4 6 .3 4-1.7 5.8-4 6z"/></g></g></switch></svg>